<?xml version="1.0" encoding="UTF-8" standalone="no"?>
<!-- Created with Inkscape (http://www.inkscape.org/) -->

<svg
   version="1.1"
   id="svg2"
   width="1700"
   height="1700"
   viewBox="0 0 1700 1700"
   sodipodi:docname="Boat 02.svg"
   inkscape:version="1.2.2 (b0a8486541, 2022-12-01)"
   xmlns:inkscape="http://www.inkscape.org/namespaces/inkscape"
   xmlns:sodipodi="http://sodipodi.sourceforge.net/DTD/sodipodi-0.dtd"
   xmlns="http://www.w3.org/2000/svg"
   xmlns:svg="http://www.w3.org/2000/svg"
   xmlns:rdf="http://www.w3.org/1999/02/22-rdf-syntax-ns#"
   xmlns:cc="http://creativecommons.org/ns#"
   xmlns:dc="http://purl.org/dc/elements/1.1/">
  <title
     id="title1867">MediaWhaler Logo</title>
  <defs
     id="defs6">
    <clipPath
       clipPathUnits="userSpaceOnUse"
       id="clipPath22">
      <path
         d="M 0,1123.223 H 1222.261 V 0 H 0 Z"
         id="path20" />
    </clipPath>
    <clipPath
       clipPathUnits="userSpaceOnUse"
       id="clipPath190">
      <path
         d="m 671.916,756.318 h 83.54 v -76.342 h -83.54 z"
         id="path188" />
    </clipPath>
    <clipPath
       clipPathUnits="userSpaceOnUse"
       id="clipPath230">
      <path
         d="M 287.535,383.899 H 631.454 V 205.684 H 287.535 Z"
         id="path228" />
    </clipPath>
    <clipPath
       clipPathUnits="userSpaceOnUse"
       id="clipPath246">
      <path
         d="M 554.052,498.582 H 912.33 V 209.742 H 554.052 Z"
         id="path244" />
    </clipPath>
    <clipPath
       clipPathUnits="userSpaceOnUse"
       id="clipPath370">
      <path
         d="m 341.04,377.446 h 76.693 V 310.225 H 341.04 Z"
         id="path368" />
    </clipPath>
    <clipPath
       clipPathUnits="userSpaceOnUse"
       id="clipPath386">
      <path
         d="m 313.9,369.429 h 24.549 V 293.326 H 313.9 Z"
         id="path384" />
    </clipPath>
    <clipPath
       clipPathUnits="userSpaceOnUse"
       id="clipPath426">
      <path
         d="M 491.966,358.729 H 568.66 V 291.508 H 491.966 Z"
         id="path424" />
    </clipPath>
    <clipPath
       clipPathUnits="userSpaceOnUse"
       id="clipPath442">
      <path
         d="m 464.826,350.712 h 24.549 v -76.103 h -24.549 z"
         id="path440" />
    </clipPath>
    <clipPath
       clipPathUnits="userSpaceOnUse"
       id="clipPath654">
      <path
         d="M 707.134,513.756 H 807.322 V 486.824 H 707.134 Z"
         id="path652" />
    </clipPath>
    <clipPath
       clipPathUnits="userSpaceOnUse"
       id="clipPath670">
      <path
         d="M 691.215,454.681 H 807.322 V 404.048 H 691.215 Z"
         id="path668" />
    </clipPath>
    <clipPath
       clipPathUnits="userSpaceOnUse"
       id="clipPath738">
      <path
         d="m 623.154,863.782 h 63.852 v -57.39 h -63.852 z"
         id="path736" />
    </clipPath>
  </defs>
  <sodipodi:namedview
     id="namedview4"
     pagecolor="#505050"
     bordercolor="#eeeeee"
     borderopacity="1"
     inkscape:showpageshadow="0"
     inkscape:pageopacity="0"
     inkscape:pagecheckerboard="0"
     inkscape:deskcolor="#505050"
     showgrid="false"
     inkscape:zoom="0.64749324"
     inkscape:cx="830.89671"
     inkscape:cy="807.73045"
     inkscape:window-width="3440"
     inkscape:window-height="1440"
     inkscape:window-x="1440"
     inkscape:window-y="2000"
     inkscape:window-maximized="1"
     inkscape:current-layer="g10">
    <inkscape:page
       x="0"
       y="0"
       id="page8"
       width="1700"
       height="1700"
       inkscape:export-filename="MediaWhaler logo png 3000x3000.png"
       inkscape:export-xdpi="96"
       inkscape:export-ydpi="96" />
  </sodipodi:namedview>
  <g
     id="g10"
     inkscape:groupmode="layer"
     inkscape:label="Page 1"
     transform="matrix(1.3333333,0,0,-1.3333333,0,1497.6267)">
    <path
       d="M 0,6.5826615 H 1222.261 V 1123.222 H 0 Z"
       style="fill:#bad8e2;fill-opacity:1;fill-rule:nonzero;stroke:none;stroke-width:1.01757"
       id="path1428" />
    <path
       d="M 0,6.5826615 H 1222.261 V 1123.222 H 0 Z"
       style="fill:#bad8e2;fill-opacity:1;fill-rule:nonzero;stroke:none;stroke-width:1.01757"
       id="path1430" />
    <path
       d="M 0,6.5826615 H 1222.261 V 1123.222 H 0 Z"
       style="fill:#bad8e2;fill-opacity:1;fill-rule:nonzero;stroke:none;stroke-width:1.01757"
       id="path1432" />
    <path
       d="M 0,5.4243482 H 1222.261 V 1123.222 H 0 Z"
       style="fill:#bad8e2;fill-opacity:1;fill-rule:nonzero;stroke:none;stroke-width:1.0181"
       id="path1434" />
    <path
       d="M 0,5.4243482 H 1222.261 V 1123.222 H 0 Z"
       style="fill:#bad8e2;fill-opacity:1;fill-rule:nonzero;stroke:none;stroke-width:1.0181"
       id="path1436" />
    <path
       d="M 0,5.4243482 H 1222.261 V 1123.222 H 0 Z"
       style="fill:#bad8e2;fill-opacity:1;fill-rule:nonzero;stroke:none;stroke-width:1.0181"
       id="path1438" />
    <path
       d="M 0,5.4243482 H 1222.261 V 1123.222 H 0 Z"
       style="fill:#bad8e2;fill-opacity:1;fill-rule:nonzero;stroke:none;stroke-width:1.0181"
       id="path1440" />
    <path
       d="M 0,5.4243482 H 1222.261 V 1123.222 H 0 Z"
       style="fill:#bad8e2;fill-opacity:1;fill-rule:nonzero;stroke:none;stroke-width:1.0181"
       id="path1442" />
    <path
       d="M 0,5.4243482 H 1222.261 V 1123.222 H 0 Z"
       style="fill:#bad8e2;fill-opacity:1;fill-rule:nonzero;stroke:none;stroke-width:1.0181"
       id="path1444" />
    <path
       d="M 0,6.5826615 H 1222.261 V 1123.222 H 0 Z"
       style="fill:#bad8e2;fill-opacity:1;fill-rule:nonzero;stroke:none;stroke-width:1.01757"
       id="path1446" />
    <path
       d="M 0,8.899288 H 1222.261 V 1123.222 H 0 Z"
       style="fill:#bad8e2;fill-opacity:1;fill-rule:nonzero;stroke:none;stroke-width:1.01651"
       id="path1448" />
    <path
       d="M 0,17.007481 H 1222.261 V 1123.222 H 0 Z"
       style="fill:#bad8e2;fill-opacity:1;fill-rule:nonzero;stroke:none;stroke-width:1.01281"
       id="path1450" />
    <path
       d="M 0,21.640734 H 1222.261 V 1123.222 H 0 Z"
       style="fill:#bad8e2;fill-opacity:1;fill-rule:nonzero;stroke:none;stroke-width:1.01068"
       id="path1452" />
    <path
       d="M 0,25.115674 H 1222.261 V 1123.222 H 0 Z"
       style="fill:#bad8e2;fill-opacity:1;fill-rule:nonzero;stroke:none;stroke-width:1.00909"
       id="path1454" />
    <path
       d="M 0,30.907241 H 1222.261 V 1123.222 H 0 Z"
       style="fill:#bad8e2;fill-opacity:1;fill-rule:nonzero;stroke:none;stroke-width:1.00642"
       id="path1456" />
    <path
       d="M 0,34.38218 H 1222.261 V 1123.222 H 0 Z"
       style="fill:#bad8e2;fill-opacity:1;fill-rule:nonzero;stroke:none;stroke-width:1.00482"
       id="path1458" />
    <path
       d="M 0,37.85712 H 1222.261 V 1123.222 H 0 Z"
       style="fill:#bad8e2;fill-opacity:1;fill-rule:nonzero;stroke:none;stroke-width:1.00322"
       id="path1460" />
    <path
       d="M 0,40.173747 H 1222.261 V 1123.222 H 0 Z"
       style="fill:#bad8e2;fill-opacity:1;fill-rule:nonzero;stroke:none;stroke-width:1.00215"
       id="path1462" />
    <path
       d="M 0,42.490373 H 1222.261 V 1123.222 H 0 Z"
       style="fill:#bad8e2;fill-opacity:1;fill-rule:nonzero;stroke:none;stroke-width:1.00107"
       id="path1464" />
    <path
       d="M 0,47.123627 H 1222.261 V 1123.222 H 0 Z"
       style="fill:#bad8e2;fill-opacity:1;fill-rule:nonzero;stroke:none;stroke-width:0.998925"
       id="path1466" />
    <path
       d="M 0,50.598566 H 1222.261 V 1123.222 H 0 Z"
       style="fill:#bad8e2;fill-opacity:1;fill-rule:nonzero;stroke:none;stroke-width:0.997311"
       id="path1468" />
    <path
       d="M 0,52.915193 H 1222.261 V 1123.222 H 0 Z"
       style="fill:#bad8e2;fill-opacity:1;fill-rule:nonzero;stroke:none;stroke-width:0.996234"
       id="path1470" />
    <path
       d="M 0,52.915193 H 1222.261 V 1123.222 H 0 Z"
       style="fill:#bad8e2;fill-opacity:1;fill-rule:nonzero;stroke:none;stroke-width:0.996234"
       id="path1472" />
    <path
       d="M 0,52.915193 H 1222.261 V 1123.222 H 0 Z"
       style="fill:#bad8e2;fill-opacity:1;fill-rule:nonzero;stroke:none;stroke-width:0.996234"
       id="path1474" />
    <path
       d="M 0,52.915193 H 1222.261 V 1123.222 H 0 Z"
       style="fill:#bad8e2;fill-opacity:1;fill-rule:nonzero;stroke:none;stroke-width:0.996234"
       id="path1476" />
    <path
       d="M 0,52.915193 H 1222.261 V 1123.222 H 0 Z"
       style="fill:#bad8e2;fill-opacity:1;fill-rule:nonzero;stroke:none;stroke-width:0.996234"
       id="path1478" />
    <path
       d="M 0,52.915193 H 1222.261 V 1123.222 H 0 Z"
       style="fill:#bad8e2;fill-opacity:1;fill-rule:nonzero;stroke:none;stroke-width:0.996234"
       id="path1480" />
    <path
       d="M 0,-149.78963 H 1274.3851 V 1123.222 H 0 Z"
       style="fill:#bad8e2;fill-opacity:1;fill-rule:nonzero;stroke:none;stroke-width:1.1094"
       id="path12" />
    <g
       id="g16"
       transform="translate(29.725203,-103.77969)">
      <g
         id="g18"
         clip-path="url(#clipPath22)">
        <g
           id="g28"
           transform="translate(392.2705,31.0713)" />
        <g
           id="g136"
           transform="translate(701.4043,268.8071)">
          <path
             d="m 0,0 c -67.527,-2.922 -134.417,-14.156 -201.8,-19.454 -24.563,-1.931 -49.212,-3.046 -73.855,-2.692 -1.495,0.022 -2.989,0.091 -4.483,0.123 0.013,-0.013 0.025,-0.028 0.039,-0.042 -0.494,0.031 -0.955,0.05 -1.446,0.081 -9.17,0.22 -18.338,0.62 -27.487,1.296 -110.992,3.29 -152.817,-19.74 -164.581,-28.466 -1.38,-1.31 -2.69,-2.445 -3.853,-3.271 0,0 -0.383,-0.493 -0.946,-1.217 48.599,5.374 93.922,-23.744 141.377,-36.275 63.7,-16.821 130.837,-3.327 196.373,3.418 115.043,11.845 231.061,2.491 346.708,1.571 41.082,-0.325 82.902,0.53 121.977,13.216 39.075,12.686 75.601,38.963 91.413,76.882 C 282.258,-23.56 140.024,6.058 0,0"
             style="fill:#71cccc;fill-opacity:1;fill-rule:nonzero;stroke:none"
             id="path138" />
        </g>
        <g
           id="g140"
           transform="translate(600.4893,745.0767)">
          <path
             d="m 0,0 c -6.933,2.999 -68.566,99.308 -75.573,110.28 l 2.123,1.36 C -46.163,68.898 -3.819,4.515 0.999,2.311 Z"
             style="fill:#22323a;fill-opacity:1;fill-rule:nonzero;stroke:none"
             id="path142" />
        </g>
        <g
           id="g144"
           transform="translate(517.2607,930.6929)">
          <path
             d="M 0,0 C 0,6.198 -2.352,147.271 0.428,147.057 3.206,146.843 5.344,-3.207 5.344,-3.207 Z"
             style="fill:#686462;fill-opacity:1;fill-rule:nonzero;stroke:none"
             id="path146" />
        </g>
        <g
           id="g148"
           transform="translate(667.627,769.7002)">
          <path
             d="m 0,0 c 0.208,4.267 4.158,138.987 6.444,139.195 2.287,0.207 3.951,-3.327 3.951,-3.327 V 0.733 Z"
             style="fill:#5e3a26;fill-opacity:1;fill-rule:nonzero;stroke:none"
             id="path150" />
        </g>
        <g
           id="g152"
           transform="translate(502.085,421.1235)">
          <path
             d="m 0,0 c 0,0 8.764,508.287 11.114,511.707 2.352,3.419 14.322,0.641 15.176,-6.84 0.856,-7.481 -2.981,-508.715 -2.981,-508.715 z"
             style="fill:#704c34;fill-opacity:1;fill-rule:nonzero;stroke:none"
             id="path154" />
        </g>
        <g
           id="g156"
           transform="translate(518.8516,430.9018)">
          <path
             d="m 0,0 c 0,0 -6.346,269.809 -3.56,316.985 2.787,47.177 7.313,177.879 7.313,177.879 0,0 -1.282,2.789 -5.344,4.927 -4.061,2.137 -12.38,-501.328 -12.38,-501.328 z"
             style="fill:#5b3925;fill-opacity:1;fill-rule:nonzero;stroke:none"
             id="path158" />
        </g>
        <g
           id="g160"
           transform="translate(452.1787,420.0888)">
          <path
             d="m 0,0 c 0,0 -149.572,112.931 -319.278,55.711 v -1.954 c 0,0 72.571,19.818 130.07,11.165 57.5,-8.652 152.427,-45.776 168.743,-76.479 C 1.153,-15.465 0,0 0,0"
             style="fill:#704c34;fill-opacity:1;fill-rule:nonzero;stroke:none"
             id="path162" />
        </g>
        <g
           id="g164"
           transform="translate(448.0762,421.1167)">
          <path
             d="m 0,0 c 0,0 -63.652,41.797 -104.118,51.59 -40.466,9.793 -76.324,21.889 -117.799,17.857 30.242,-0.72 89.573,-9.217 131.192,-26.065 C -49.107,26.533 -14.977,-3.685 -11.089,-3.841 -7.2,-3.997 0,0 0,0"
             style="fill:#5b3925;fill-opacity:1;fill-rule:nonzero;stroke:none"
             id="path166" />
        </g>
        <g
           id="g168"
           transform="translate(116.6543,686.4316)">
          <path
             d="M 0,0 0.785,36.5 2.655,35.904 1.569,0 Z"
             style="fill:#545d60;fill-opacity:1;fill-rule:nonzero;stroke:none"
             id="path170" />
        </g>
        <g
           id="g172"
           transform="translate(905.1631,815.4956)">
          <path
             d="m 0,0 c 0,0 -37.997,-141.375 -41.606,-201.024 -50.734,-4.67 -266.617,0 -266.617,0 v 112.93 c 0,0 91.702,50.522 161.965,72.386 C -75.994,6.156 0,0 0,0"
             style="fill:#c6b5a3;fill-opacity:1;fill-rule:nonzero;stroke:none"
             id="path174" />
        </g>
        <g
           id="g176"
           transform="translate(720.0176,778.333)">
          <path
             d="m 0,0 c -0.546,-0.366 -0.624,-50.52 3.326,-50.728 3.95,-0.208 99.377,19.751 125.988,18.088 26.612,-1.663 40.333,-4.158 40.333,-4.158 l 18.087,73.389 -37.005,-5.613 C 150.729,30.978 29.106,19.543 0,0"
             style="fill:#b59b83;fill-opacity:1;fill-rule:nonzero;stroke:none"
             id="path178" />
        </g>
        <g
           id="g180"
           transform="translate(720.0176,778.333)">
          <path
             d="m 0,0 c -0.546,-0.366 -0.624,-50.52 3.326,-50.728 3.95,-0.208 99.377,19.751 125.988,18.088 26.612,-1.663 40.333,-4.158 40.333,-4.158 l 18.087,73.389 -37.005,-5.613 C 150.729,30.978 29.106,19.543 0,0"
             style="fill:#b59b83;fill-opacity:1;fill-rule:nonzero;stroke:none"
             id="path182" />
        </g>
        <g
           id="g184">
          <g
             id="g186" />
          <g
             id="g198">
            <g
               clip-path="url(#clipPath190)"
               opacity="0.679993"
               id="g196">
              <g
                 transform="translate(671.916,737.748)"
                 id="g194">
                <path
                   d="m 0,0 c 0,0 76.885,19.187 79.136,18.555 1.829,-7.38 8.924,-56.085 0,-59.881 C 70.212,-45.121 7.801,-57.771 7.801,-57.771 Z"
                   style="fill:#b59b83;fill-opacity:1;fill-rule:nonzero;stroke:none"
                   id="path192" />
              </g>
            </g>
          </g>
        </g>
        <g
           id="g200"
           transform="translate(596.9404,610.1123)">
          <path
             d="m 0,0 1.857,-178.321 246.836,69.026 c 0,0 17.193,12.105 17.017,12.806 -0.175,0.702 -3.33,66.36 0.002,95.086 C 219.045,4.035 0,0 0,0"
             style="fill:#c6b5a3;fill-opacity:1;fill-rule:nonzero;stroke:none"
             id="path202" />
        </g>
        <g
           id="g204"
           transform="translate(593.2734,571.25)">
          <path
             d="m 0,0 c 0,0 19.957,3.007 22.007,-1.777 2.051,-4.785 3.418,-133.164 3.418,-133.164 0,0 -24.196,-3.255 -24.741,-1.205 C 0.137,-134.095 -1.094,-0.82 0,0"
             style="fill:#a38872;fill-opacity:1;fill-rule:nonzero;stroke:none"
             id="path206" />
        </g>
        <g
           id="g208"
           transform="translate(616.2559,557.7173)">
          <path
             d="m 0,0 c 0,0 0.174,10.958 13.972,10.958 13.799,0 54.18,2.029 60.471,-3.247 6.29,-5.275 9.944,-6.29 8.929,-28.815 -1.015,-22.524 0.608,-87.256 -2.029,-92.126 -2.639,-4.871 -68.521,-9.783 -72.715,-8.179 -4.195,1.605 -6.264,7.562 -6.396,17.387 -0.131,9.827 -0.149,11.088 -0.149,11.088 z"
             style="fill:#b59b83;fill-opacity:1;fill-rule:nonzero;stroke:none"
             id="path210" />
        </g>
        <g
           id="g212"
           transform="translate(621.0723,551.3535)">
          <path
             d="m 0,0 c 0,0 0.153,9.695 12.361,9.695 12.207,0 47.933,1.795 53.498,-2.873 5.566,-4.667 8.797,-5.565 7.9,-25.492 -0.899,-19.927 0.538,-77.195 -1.796,-81.504 -2.334,-4.308 -60.619,-8.655 -64.33,-7.235 -3.711,1.42 -5.541,6.689 -5.657,15.383 -0.118,8.692 -0.133,9.808 -0.133,9.808 z"
             style="fill:#c6b5a3;fill-opacity:1;fill-rule:nonzero;stroke:none"
             id="path214" />
        </g>
        <g
           id="g216"
           transform="translate(944.4336,814.0098)">
          <path
             d="m 0,0 c 0,0 8.916,19.317 -6.156,23.775 -15.072,4.457 -121.845,-5.519 -209.515,-35.662 -87.669,-30.143 -180.221,-76.207 -180.857,-81.726 -0.638,-5.519 4.033,-22.076 15.708,-19.529 11.674,2.547 106.349,65.593 213.548,88.306 C -60.073,-2.123 0,0 0,0"
             style="fill:#704c34;fill-opacity:1;fill-rule:nonzero;stroke:none"
             id="path218" />
        </g>
        <g
           id="g220"
           transform="translate(946.5098,541.7632)">
          <path
             d="m 0,0 c 0,0 -153.895,-70.486 -255.316,-93.981 -101.421,-23.495 -405.685,-68.919 -418.217,-61.871 19.971,-86.541 116.694,-144.496 125.7,-147.629 9.007,-3.133 14.489,-39.505 32.894,-40.115 l 400.595,1.74 c 0,0 40.497,31.318 50.382,71.38 C -54.076,-230.413 0,0 0,0"
             style="fill:#a36b3a;fill-opacity:1;fill-rule:nonzero;stroke:none"
             id="path222" />
        </g>
        <g
           id="g224">
          <g
             id="g226" />
          <g
             id="g238">
            <g
               clip-path="url(#clipPath230)"
               opacity="0.580002"
               id="g236">
              <g
                 transform="translate(287.5391,376.3408)"
                 id="g234">
                <path
                   d="m 0,0 c -0.798,2.05 113.751,-10.404 174.07,7.558 -49.931,-40.458 -7.188,-147.008 169.845,-174.157 -76.856,-3.735 -177.491,-5.808 -197.048,-2.131 -19.557,3.677 -19.148,27.193 -19.148,27.193 0,0 -94.062,55.056 -127.719,141.537"
                   style="fill:#895127;fill-opacity:1;fill-rule:nonzero;stroke:none"
                   id="path232" />
              </g>
            </g>
          </g>
        </g>
        <g
           id="g240">
          <g
             id="g242" />
          <g
             id="g254">
            <g
               clip-path="url(#clipPath246)"
               opacity="0.710007"
               id="g252">
              <g
                 transform="translate(912.3301,498.582)"
                 id="g250">
                <path
                   d="m 0,0 c 0,0 -191.986,-87.496 -358.278,-107.323 112.189,-6.924 210.679,-4.638 211.633,-83.924 0.955,-79.285 -63.34,-88.472 -94.004,-95.502 143.921,-8.512 163.705,10.931 165.683,22.971 C -72.988,-251.738 0,0 0,0"
                   style="fill:#bc7a4a;fill-opacity:1;fill-rule:nonzero;stroke:none"
                   id="path248" />
              </g>
            </g>
          </g>
        </g>
        <g
           id="g256"
           transform="translate(950.1875,577.2231)">
          <path
             d="m 0,0 c 0,0 -114.788,-81.903 -281.481,-122.791 -166.694,-40.886 -372.534,-43.705 -374.615,-43.705 -2.082,0 -20.945,4.581 -29.333,-10.416 -8.388,-14.998 -5.592,-21.353 -5.592,-21.353 0,0 60.498,2.288 136.502,9.151 76.004,6.863 299.187,29.487 404.169,74.225 104.983,44.738 142.19,60.341 142.19,60.341 z"
             style="fill:#633d28;fill-opacity:1;fill-rule:nonzero;stroke:none"
             id="path258" />
        </g>
        <g
           id="g260"
           transform="translate(938.582,566.6963)">
          <path
             d="m 0,0 c 0,0 -9.566,-42.656 -21.49,-51.122 -72.286,-28.197 -184.172,-74.619 -298.394,-93.412 -114.222,-18.793 -270.907,-37.415 -352.571,-38.263 121.744,16.315 407.923,53.073 483.142,85.504 C -114.095,-64.862 -12.504,-46.498 0,0"
             style="fill:#56361e;fill-opacity:1;fill-rule:nonzero;stroke:none"
             id="path262" />
        </g>
        <g
           id="g264"
           transform="translate(574.3818,373.8364)">
          <path
             d="m 0,0 c -22.899,-5.336 -46.034,-9.52 -69.331,-12.539 l -35.047,-3.7 c -11.669,-1.295 -23.291,-2.96 -34.931,-4.542 -23.28,-3.144 -46.649,-5.869 -70.131,-7.125 -23.461,-1.315 -47.04,-1.799 -70.511,0.105 l 0.02,0.418 c 23.465,0.694 46.835,2.36 70.222,3.796 l 70.152,5.09 c 23.439,1.49 46.634,5.286 69.733,9.399 11.574,1.885 23.179,3.551 34.805,5.122 11.616,1.635 23.24,3.222 34.947,4.388 z"
             style="fill:#895127;fill-opacity:1;fill-rule:nonzero;stroke:none"
             id="path266" />
        </g>
        <g
           id="g268"
           transform="translate(912.3359,481.2158)">
          <path
             d="m 0,0 c -26.16,-14.031 -53.439,-25.861 -81.206,-36.276 l -84.093,-29.009 c -28.031,-9.671 -56.416,-18.451 -85.276,-25.378 -28.746,-7.385 -58.028,-12.592 -87.379,-16.716 l -0.072,0.412 c 28.897,6.682 57.772,13.018 86.399,20.502 28.656,7.307 57.244,14.936 85.63,23.368 14.231,4.093 28.315,8.682 42.25,13.691 13.914,5.068 27.591,10.769 41.285,16.37 27.483,10.983 54.94,21.957 82.278,33.411 z"
             style="fill:#895127;fill-opacity:1;fill-rule:nonzero;stroke:none"
             id="path270" />
        </g>
        <g
           id="g272"
           transform="translate(912.3301,448.6206)">
          <path
             d="m 0,0 c -45.409,-21.414 -91.854,-40.661 -139.223,-57.385 -47.548,-16.055 -95.722,-30.947 -145.263,-39.526 -49.345,-9.333 -98.993,-16.936 -148.759,-23.434 -24.863,-3.413 -49.806,-6.23 -74.743,-9.022 -24.935,-2.822 -49.883,-5.539 -74.888,-7.727 l -0.05,0.418 149.106,20.619 c 49.679,6.912 99.432,13.355 148.928,21.408 24.716,4.169 49.385,8.79 73.385,16.116 24.061,7.057 47.613,15.717 71.111,24.419 47.052,17.284 93.699,35.685 140.224,54.497 z"
             style="fill:#895127;fill-opacity:1;fill-rule:nonzero;stroke:none"
             id="path274" />
        </g>
        <g
           id="g276"
           transform="translate(612.2412,311.5288)">
          <path
             d="m 0,0 c -21.055,-4.599 -42.344,-7.885 -63.728,-10.247 -21.46,-1.758 -42.893,-3.526 -64.171,-6.785 -42.62,-5.974 -85.462,-10.241 -128.536,-11.249 l -0.032,0.418 c 42.639,6.084 85.416,9.999 128.321,13.115 21.476,1.352 42.769,4.468 63.991,7.951 21.287,2.984 42.621,5.412 64.092,7.211 z"
             style="fill:#895127;fill-opacity:1;fill-rule:nonzero;stroke:none"
             id="path278" />
        </g>
        <g
           id="g280"
           transform="translate(886.4404,393.9785)">
          <path
             d="m 0,0 c -21.755,-10.01 -44.086,-18.628 -66.739,-26.284 -22.859,-7.086 -45.691,-14.125 -68.225,-22.153 -22.637,-7.701 -45.405,-15.16 -68.661,-20.892 -23.198,-5.873 -46.746,-10.677 -70.574,-13.121 l -0.064,0.414 c 46.713,10.167 92.567,22.963 138.611,35.791 23.091,6.193 45.517,14.527 67.759,23.239 22.412,8.242 44.973,16.028 67.737,23.395 z"
             style="fill:#895127;fill-opacity:1;fill-rule:nonzero;stroke:none"
             id="path282" />
        </g>
        <g
           id="g284"
           transform="translate(878.2969,349.8867)">
          <path
             d="m 0,0 c -36.451,-16.837 -74.188,-30.856 -112.611,-42.552 -38.667,-10.9 -77.642,-20.6 -117.247,-27.473 -39.602,-6.523 -79.325,-12.239 -119.169,-16.936 -19.905,-2.493 -39.867,-4.505 -59.831,-6.457 -19.96,-1.994 -39.928,-3.921 -59.947,-5.332 l -0.043,0.417 59.643,7.933 59.651,7.733 119.353,14.912 c 19.798,2.882 39.526,6.532 58.965,11.396 19.424,4.937 38.554,10.943 57.596,17.128 38.124,12.263 75.962,25.403 113.474,39.616 z"
             style="fill:#895127;fill-opacity:1;fill-rule:nonzero;stroke:none"
             id="path286" />
        </g>
        <g
           id="g288"
           transform="translate(861.5068,303.3896)">
          <path
             d="m 0,0 c -34.64,-12.997 -70.066,-23.84 -105.919,-32.958 -36.01,-8.546 -72.188,-16.12 -108.467,-23.399 -36.418,-6.642 -73.028,-11.911 -109.79,-16.001 -18.366,-2.166 -36.793,-3.77 -55.228,-5.212 -18.431,-1.477 -36.875,-2.819 -55.364,-3.442 l -0.028,0.42 55.099,6.046 55.025,6.485 c 36.646,4.499 73.379,8.617 109.899,13.968 36.549,5.379 72.498,14.289 107.973,24.497 35.621,9.71 71.158,19.691 106.664,29.992 z"
             style="fill:#895127;fill-opacity:1;fill-rule:nonzero;stroke:none"
             id="path290" />
        </g>
        <g
           id="g292"
           transform="translate(840.8975,257.3779)">
          <path
             d="m 0,0 c -17.374,-7.262 -35.385,-12.808 -53.638,-17.237 -18.407,-3.882 -36.805,-7.514 -54.999,-12.216 -18.253,-4.426 -36.651,-8.411 -55.273,-10.998 -18.572,-2.901 -37.35,-4.448 -56.131,-5.093 l -0.039,0.418 110.976,17.923 c 18.558,2.819 36.688,7.781 54.591,13.33 18.044,5.027 36.148,9.706 54.378,14.269 z"
             style="fill:#895127;fill-opacity:1;fill-rule:nonzero;stroke:none"
             id="path294" />
        </g>
        <g
           id="g296"
           transform="translate(593.5137,634.5044)">
          <path
             d="M 0,0 C -0.11,1.677 1.154,3.122 2.831,3.231 24.259,4.629 155.39,13 157.538,8.651 c 2.34,-4.736 7.252,-24.21 7.252,-24.21 H 1.289 c 0,0 -0.94,10.24 -1.289,15.559"
             style="fill:#b59b83;fill-opacity:1;fill-rule:nonzero;stroke:none"
             id="path298" />
        </g>
        <g
           id="g300"
           transform="translate(653.4697,810.9165)">
          <path
             d="M 0,0 16.205,-18.657 17.55,-15.731 4.585,0.316 Z"
             style="fill:#3b404c;fill-opacity:1;fill-rule:nonzero;stroke:none"
             id="path302" />
        </g>
        <g
           id="g304"
           transform="translate(502.7061,456.6054)">
          <path
             d="m 0,0 c 0,0 -145.541,107.514 -147.892,109.01 -2.351,1.496 -236.616,164.157 -237.685,164.157 -1.069,0 0,-6.626 0,-6.626 0,0 160.951,-111.362 198.784,-141.073 37.833,-29.71 184.89,-139.362 184.89,-139.362 z"
             style="fill:#704c34;fill-opacity:1;fill-rule:nonzero;stroke:none"
             id="path306" />
        </g>
        <g
           id="g308"
           transform="translate(493.6699,456.7387)">
          <path
             d="M 0,0 C 0,0 -310.171,228.96 -348.856,250.046 -311.565,225.128 -31.808,17.427 0,-5.478 Z"
             style="fill:#5b3925;fill-opacity:1;fill-rule:nonzero;stroke:none"
             id="path310" />
        </g>
        <g
           id="g312"
           transform="translate(558.3945,622.2266)">
          <path
             d="m 0,0 -33.663,227.091 2.491,0.377 L 2.491,0.377 Z"
             style="fill:#22323a;fill-opacity:1;fill-rule:nonzero;stroke:none"
             id="path314" />
        </g>
        <g
           id="g316"
           transform="translate(515.3242,850.9238)">
          <path
             d="m 0,0 c -7.891,-25.722 -30.884,-103.93 -27.188,-130.733 1.179,-8.531 3.392,-13.406 6.08,-13.406 h 0.074 c 5.694,0.188 14.352,18.625 15.749,37.956 C -3.507,-81.436 -0.646,-15.192 0,0 m -21.12,-146.655 c -4.258,0 -7.134,5.236 -8.56,15.577 C -34.187,-98.407 -1.217,4.687 0.193,9.063 L 2.586,8.292 C 2.545,8.153 1.951,6.301 0.955,3.089 L 2.647,3.023 c -0.033,-0.811 -3.413,-81.452 -5.424,-109.386 -1.299,-18.02 -9.695,-40.013 -18.175,-40.292 z"
             style="fill:#22323a;fill-opacity:1;fill-rule:nonzero;stroke:none"
             id="path318" />
        </g>
        <g
           id="g320"
           transform="translate(310.7764,592.1123)">
          <path
             d="m 0,0 -2.196,1.229 c 8.157,14.479 186.688,253.289 194.285,263.45 l 2.015,-1.508 C 192.244,260.688 8.076,14.332 0,0"
             style="fill:#22323a;fill-opacity:1;fill-rule:nonzero;stroke:none"
             id="path322" />
        </g>
        <g
           id="g324"
           transform="translate(351.8345,471.4253)">
          <path
             d="m 0,0 -2.13,1.344 c 15.446,24.641 160.331,380.154 161.794,383.743 l 2.327,-0.951 C 156.021,369.477 15.565,24.829 0,0"
             style="fill:#22323a;fill-opacity:1;fill-rule:nonzero;stroke:none"
             id="path326" />
        </g>
        <g
           id="g328"
           transform="translate(512.1309,1002.6182)">
          <path
             d="m 0,0 c 0,0 -0.188,-15.71 2.138,-15.71 2.326,0 10.259,-2.138 10.259,-2.138 V -1.39 C 12.397,-1.39 0,1.814 0,0"
             style="fill:#22323a;fill-opacity:1;fill-rule:nonzero;stroke:none"
             id="path330" />
        </g>
        <g
           id="g332"
           transform="translate(113.54,676.5903)">
          <path
             d="M 0,0 C -4.493,1.498 -2.239,5.091 -0.678,5.769 0.883,6.447 6.854,6.992 6.922,4.75 6.992,2.512 4.683,-1.561 0,0 M 24.501,-27.896 C 18.87,-15.067 6.517,-17.987 5.361,-16.969 4.208,-15.951 4.208,-3.8 4.208,-3.8 c 0,0 0.95,-0.611 5.361,2.985 4.412,3.597 1.155,9.028 -7.398,9.028 -8.55,0 -8.415,-3.598 -7.94,-7.547 0.476,-3.952 4.14,-4.604 4.48,-4.806 0.619,-0.371 -2.986,-17.579 1.764,-18.778 11.606,-2.827 12.286,-16.245 6.312,-19.638 -5.974,-3.394 -14.525,-2.511 -15.745,8.416 -1.224,10.927 -12.042,11.869 -10.385,10.86 2.782,-1.697 2.307,-10.045 3.122,-18.937 0.813,-8.891 9.977,-17.104 24.704,-16.086 14.729,1.018 21.652,17.579 16.018,30.407"
             style="fill:#3f4556;fill-opacity:1;fill-rule:nonzero;stroke:none"
             id="path334" />
        </g>
        <g
           id="g336"
           transform="translate(115.3047,682.0874)">
          <path
             d="M 0,0 C 0,0 -2.647,3.733 -0.679,5.227 1.29,6.72 5.365,4.819 5.16,4.48 4.955,4.141 3.665,1.833 4.14,0 1.425,-1.154 0,0 0,0"
             style="fill:#22323a;fill-opacity:1;fill-rule:nonzero;stroke:none"
             id="path338" />
        </g>
        <g
           id="g340"
           transform="translate(180.7109,574.1235)">
          <path
             d="m 0,0 c -6.343,0 -13.689,6.285 -21.863,18.724 -14.545,22.141 -35.154,128.48 -36.022,132.995 -0.066,0.328 0.152,0.647 0.479,0.713 0.3,0.107 0.648,-0.156 0.709,-0.484 0.213,-1.106 21.432,-110.624 35.85,-132.552 C -12.243,6.293 -4.716,0.229 1.446,1.344 c 6.24,1.131 11.226,9.702 14.82,25.485 8.321,36.604 8.26,72.421 8.26,72.782 0,0.336 0.27,0.606 0.602,0.606 h 0.004 c 0.332,0 0.606,-0.27 0.606,-0.606 0,-0.352 0.062,-36.309 -8.292,-73.045 C 13.738,10.259 8.428,1.376 1.659,0.147 1.114,0.049 0.561,0 0,0"
             style="fill:#22323a;fill-opacity:1;fill-rule:nonzero;stroke:none"
             id="path342" />
        </g>
        <g
           id="g344"
           transform="translate(211.1694,618.3853)">
          <path
             d="M 0,0 C -0.144,0 -0.291,0.008 -0.438,0.016 -11.472,1 -14.422,54.484 -14.721,60.573 c -0.016,0.336 0.242,0.622 0.577,0.639 h 0.029 c 0.32,0 0.59,-0.254 0.607,-0.574 C -12.709,44.364 -8.78,1.975 -0.332,1.229 0.795,1.082 1.77,1.5 2.721,2.368 c 7.141,6.457 7.588,36.17 7.592,36.473 0.004,0.328 0.274,0.598 0.606,0.598 h 0.008 C 11.263,39.431 11.53,39.161 11.525,38.825 11.509,37.579 11.066,8.284 3.536,1.467 2.458,0.492 1.27,0 0,0"
             style="fill:#22323a;fill-opacity:1;fill-rule:nonzero;stroke:none"
             id="path346" />
        </g>
        <g
           id="g348"
           transform="translate(136.1299,350.1567)">
          <path
             d="m 0,0 h -1.213 l 0.209,59.598 h 1.213 z"
             style="fill:#3f4556;fill-opacity:1;fill-rule:nonzero;stroke:none"
             id="path350" />
        </g>
        <g
           id="g352"
           transform="translate(135.8145,437.935)">
          <path
             d="m 0,0 -1.213,0.017 0.414,36.702 1.213,-0.016 z"
             style="fill:#3f4556;fill-opacity:1;fill-rule:nonzero;stroke:none"
             id="path354" />
        </g>
        <g
           id="g356"
           transform="translate(353.5762,301.7861)">
          <path
             d="M 0,0 C -23.155,5.655 -23.771,29.66 -13.425,44.316 -3.079,58.973 16.573,59.52 33.871,49.51 38.585,46.782 43.232,44.085 43.848,23.543 44.463,3 23.156,-5.655 0,0 m 67.496,24.812 c -2.341,24.467 -9.853,41.663 -32.023,50.087 -24.79,9.42 -64.171,0.347 -75.256,-31.16 -11.085,-31.506 7.76,-70.629 51.731,-69.936 43.97,0.692 57.888,26.543 55.548,51.009"
             style="fill:#301b1c;fill-opacity:1;fill-rule:nonzero;stroke:none"
             id="path358" />
        </g>
        <g
           id="g360"
           transform="translate(421.0713,326.5996)">
          <path
             d="M 0,0 C -0.423,4.424 -1.022,8.604 -1.841,12.544 -5.467,7.033 -11.994,1.189 -23.71,-2.979 c -0.61,-19.286 -21.295,-27.327 -43.785,-21.835 -12.599,3.077 -18.485,11.595 -19.603,21.075 -10.9,4.105 -18.213,10.35 -21.906,16.688 -6.909,-30.257 12.229,-64.61 53.457,-63.961 C -11.577,-50.318 2.341,-24.468 0,0"
             style="fill:#261416;fill-opacity:1;fill-rule:nonzero;stroke:none"
             id="path362" />
        </g>
        <g
           id="g364">
          <g
             id="g366" />
          <g
             id="g378">
            <g
               clip-path="url(#clipPath370)"
               opacity="0.75"
               id="g376">
              <g
                 transform="translate(341.04,372.7968)"
                 id="g374">
                <path
                   d="M 0,0 C 0,0 32.808,14.216 61.656,-7.069 83.883,-28.961 74.897,-62.572 74.897,-62.572 74.583,-32.683 52.355,-10.754 35.173,-6.425 17.99,-2.095 0,0 0,0"
                   style="fill:#42272a;fill-opacity:1;fill-rule:nonzero;stroke:none"
                   id="path372" />
              </g>
            </g>
          </g>
        </g>
        <g
           id="g380">
          <g
             id="g382" />
          <g
             id="g394">
            <g
               clip-path="url(#clipPath386)"
               opacity="0.75"
               id="g392">
              <g
                 transform="translate(338.4492,369.4292)"
                 id="g390">
                <path
                   d="m 0,0 c 0,0 -22.736,-9.593 -24.42,-36.453 -1.684,-26.86 13.713,-39.65 13.713,-39.65 0,0 -15.21,18.59 -7.699,43.594 C -10.895,-7.505 0,0 0,0"
                   style="fill:#5e3b40;fill-opacity:1;fill-rule:nonzero;stroke:none"
                   id="path388" />
              </g>
            </g>
          </g>
        </g>
        <g
           id="g396"
           transform="translate(340.3882,307.5639)">
          <path
             d="M 0,0 C 0,0 -0.854,-2.456 0.652,-4.715 2.157,-6.974 13.139,-15.053 34.318,-9.059 18.14,-9.059 8.53,-8.143 0,0"
             style="fill:#5e3b40;fill-opacity:1;fill-rule:nonzero;stroke:none"
             id="path398" />
        </g>
        <g
           id="g400"
           transform="translate(395.3926,370.3549)">
          <path
             d="m 0,0 c 0,0 11.574,-6.158 15.248,-16.285 4.074,-11.23 4.617,-18.078 4.617,-18.078 0,0 -9.053,19.362 -12.766,24.336 -3.712,4.973 -11.498,8.423 -11.498,8.423 0,0 2.37,2.406 4.399,1.604"
             style="fill:#5e3b40;fill-opacity:1;fill-rule:nonzero;stroke:none"
             id="path402" />
        </g>
        <g
           id="g404"
           transform="translate(329.4292,414.5722)">
          <path
             d="m 0,0 c 0,0 -0.912,-53.247 16.546,-70.22 6.983,-4.947 4.558,6.789 4.558,6.789 0,0 -3.491,-7.275 -8.147,3.976 -4.655,11.251 -8.147,28.03 -8.923,36.565 -0.776,8.536 0.307,20.279 0.307,20.279 0,0 -0.519,6.296 -4.341,2.611"
             style="fill:#22323a;fill-opacity:1;fill-rule:nonzero;stroke:none"
             id="path406" />
        </g>
        <g
           id="g408"
           transform="translate(387.3892,415.729)">
          <path
             d="M 0,0 C 0,0 1.649,-38.11 -0.291,-52.755 -2.23,-67.4 -6.11,-67.013 -8.438,-61.581 c -1.648,0.97 -2.619,1.746 -2.619,1.746 0,0 1.064,-11.701 8.827,-8.729 7.761,2.971 6.127,31.222 6.11,35.885 C 3.862,-28.015 6.499,-0.963 2.522,3.401 -1.455,7.766 -8.632,4.274 -9.505,-0.672 -5.916,1.365 -1.164,3.679 0,0"
             style="fill:#22323a;fill-opacity:1;fill-rule:nonzero;stroke:none"
             id="path410" />
        </g>
        <g
           id="g412"
           transform="translate(504.502,283.0693)">
          <path
             d="M 0,0 C -23.154,5.655 -23.771,29.659 -13.425,44.316 -3.079,58.973 16.573,59.52 33.871,49.509 38.585,46.782 43.232,44.085 43.848,23.543 44.464,3 23.156,-5.655 0,0 m 67.496,24.812 c -2.341,24.467 -9.853,41.663 -32.023,50.087 -24.789,9.42 -64.17,0.346 -75.255,-31.16 -11.085,-31.506 7.76,-70.629 51.729,-69.936 43.971,0.692 57.889,26.543 55.549,51.009"
             style="fill:#301b1c;fill-opacity:1;fill-rule:nonzero;stroke:none"
             id="path414" />
        </g>
        <g
           id="g416"
           transform="translate(571.9971,307.8828)">
          <path
             d="M 0,0 C -0.423,4.424 -1.022,8.604 -1.841,12.544 -5.467,7.033 -11.993,1.189 -23.71,-2.979 c -0.61,-19.286 -21.295,-27.327 -43.784,-21.835 -12.6,3.077 -18.486,11.595 -19.604,21.075 -10.899,4.105 -18.213,10.35 -21.906,16.688 -6.908,-30.257 12.23,-64.61 53.457,-63.961 C -11.576,-50.319 2.341,-24.468 0,0"
             style="fill:#261416;fill-opacity:1;fill-rule:nonzero;stroke:none"
             id="path418" />
        </g>
        <g
           id="g420">
          <g
             id="g422" />
          <g
             id="g434">
            <g
               clip-path="url(#clipPath426)"
               opacity="0.75"
               id="g432">
              <g
                 transform="translate(491.9658,354.08)"
                 id="g430">
                <path
                   d="M 0,0 C 0,0 32.809,14.215 61.656,-7.069 83.883,-28.961 74.897,-62.572 74.897,-62.572 74.583,-32.683 52.355,-10.755 35.173,-6.425 17.99,-2.095 0,0 0,0"
                   style="fill:#42272a;fill-opacity:1;fill-rule:nonzero;stroke:none"
                   id="path428" />
              </g>
            </g>
          </g>
        </g>
        <g
           id="g436">
          <g
             id="g438" />
          <g
             id="g450">
            <g
               clip-path="url(#clipPath442)"
               opacity="0.75"
               id="g448">
              <g
                 transform="translate(489.375,350.7119)"
                 id="g446">
                <path
                   d="m 0,0 c 0,0 -22.736,-9.593 -24.42,-36.452 -1.684,-26.86 13.714,-39.651 13.714,-39.651 0,0 -15.21,18.59 -7.699,43.594 C -10.895,-7.505 0,0 0,0"
                   style="fill:#5e3b40;fill-opacity:1;fill-rule:nonzero;stroke:none"
                   id="path444" />
              </g>
            </g>
          </g>
        </g>
        <g
           id="g452"
           transform="translate(491.3145,288.8466)">
          <path
             d="M 0,0 C 0,0 -0.854,-2.456 0.651,-4.715 2.156,-6.974 13.139,-15.053 34.317,-9.059 18.14,-9.059 8.53,-8.143 0,0"
             style="fill:#5e3b40;fill-opacity:1;fill-rule:nonzero;stroke:none"
             id="path454" />
        </g>
        <g
           id="g456"
           transform="translate(546.3184,351.6377)">
          <path
             d="m 0,0 c 0,0 11.574,-6.157 15.248,-16.284 4.074,-11.231 4.617,-18.079 4.617,-18.079 0,0 -9.053,19.362 -12.765,24.336 -3.712,4.973 -11.499,8.423 -11.499,8.423 0,0 2.37,2.406 4.399,1.604"
             style="fill:#5e3b40;fill-opacity:1;fill-rule:nonzero;stroke:none"
             id="path458" />
        </g>
        <g
           id="g460"
           transform="translate(469.5469,422.7348)">
          <path
             d="M 0,0 C 0,0 -11.379,4.213 -11.314,-2.064 -11.251,-8.341 0,-76.621 24.635,-93.498 c 6.789,-2.133 9.699,0.727 9.699,9.578 l -2.716,-3.758 c 0,0 -6.983,-7.783 -19.01,15.021 C 0.581,-49.852 -16.877,4.461 0,0"
             style="fill:#22323a;fill-opacity:1;fill-rule:nonzero;stroke:none"
             id="path462" />
        </g>
        <g
           id="g464"
           transform="translate(545.5859,435.9253)">
          <path
             d="m 0,0 c 0,0 7.177,-41.317 -3.88,-78.367 -6.983,-27.157 -11.832,-28.951 -12.026,-18.743 -2.833,-1.779 -1.762,-13.84 5.625,-10.252 5.89,2.861 9.576,21.225 15.295,53.35 5.719,32.124 1.525,53.15 0,54.012 C 3.489,0.862 0,0 0,0"
             style="fill:#22323a;fill-opacity:1;fill-rule:nonzero;stroke:none"
             id="path466" />
        </g>
        <g
           id="g468"
           transform="translate(528.5,430.8139)">
          <path
             d="m 0,0 c 0,0 -7.005,-4.448 -0.904,-18.556 6.1,-14.108 19.063,-35.812 43.657,-38.75 24.594,-2.938 41.116,-3.065 57.639,17.652 16.523,20.717 32.252,41.693 32.267,61.454 -0.238,2.857 -3.606,-0.847 -3.606,-0.847 0,0 -0.064,-17.775 -13.917,-35.696 C 101.281,-32.664 90.091,-48.169 74.843,-52.618 59.594,-57.066 34.683,-59.99 16.89,-39.273 -0.904,-18.556 -4.641,-8.896 3.011,-2.161 4.942,2.542 0,0 0,0"
             style="fill:#22323a;fill-opacity:1;fill-rule:nonzero;stroke:none"
             id="path470" />
        </g>
        <g
           id="g472"
           transform="translate(512.6602,428.7807)">
          <path
             d="m 0,0 c 0,0 -3.494,-24.276 10.232,-37.748 13.727,-13.472 23.895,-29.737 46.518,-18.936 22.624,10.802 32.833,55.512 34.528,68.554 0.678,3.255 -5.414,-0.986 -5.414,-0.986 0,0 -0.389,-22.196 -18.692,-48.632 C 48.87,-64.184 29.921,-57.751 14.554,-35.714 -0.812,-13.677 5.53,-0.381 5.53,-0.381 5.53,-0.381 3.747,1.652 0,0"
             style="fill:#22323a;fill-opacity:1;fill-rule:nonzero;stroke:none"
             id="path474" />
        </g>
        <g
           id="g476"
           transform="translate(601.748,555.1128)">
          <path
             d="m 0,0 c -1.438,0.831 -1.931,2.67 -1.101,4.108 0.83,1.438 2.67,1.932 4.109,1.101 1.437,-0.831 1.93,-2.67 1.1,-4.108 C 3.277,-0.337 1.438,-0.83 0,0"
             style="fill:#4f4239;fill-opacity:1;fill-rule:nonzero;stroke:none"
             id="path478" />
        </g>
        <g
           id="g480"
           transform="translate(603.1943,524.8862)">
          <path
             d="m 0,0 c 0.515,-1.579 -0.349,-3.276 -1.928,-3.791 -1.579,-0.515 -3.276,0.348 -3.791,1.927 -0.514,1.579 0.349,3.277 1.928,3.791 C -2.212,2.442 -0.515,1.579 0,0"
             style="fill:#4f4239;fill-opacity:1;fill-rule:nonzero;stroke:none"
             id="path482" />
        </g>
        <g
           id="g484"
           transform="translate(603.5908,497.9575)">
          <path
             d="m 0,0 c 0.515,-1.579 -0.349,-3.276 -1.928,-3.791 -1.579,-0.514 -3.276,0.349 -3.791,1.928 -0.514,1.579 0.349,3.276 1.928,3.791 C -2.212,2.442 -0.515,1.579 0,0"
             style="fill:#4f4239;fill-opacity:1;fill-rule:nonzero;stroke:none"
             id="path486" />
        </g>
        <g
           id="g488"
           transform="translate(603.1943,473.0307)">
          <path
             d="m 0,0 c 0.515,-1.579 -0.349,-3.277 -1.928,-3.791 -1.579,-0.515 -3.276,0.348 -3.791,1.927 -0.514,1.579 0.349,3.277 1.928,3.791 C -2.212,2.442 -0.515,1.579 0,0"
             style="fill:#4f4239;fill-opacity:1;fill-rule:nonzero;stroke:none"
             id="path490" />
        </g>
        <g
           id="g492"
           transform="translate(631.7744,539.376)">
          <path
             d="M 0,0 C -0.785,11.295 1.256,17.498 17.351,17.655 33.444,17.812 46.87,17.812 49.068,4.151 51.267,-9.509 59.099,-46.2 45.018,-50.41 31.029,-54.591 5.417,-59.048 1.963,-46.33 -1.492,-33.611 0,0 0,0"
             style="fill:#3b404c;fill-opacity:1;fill-rule:nonzero;stroke:none"
             id="path494" />
        </g>
        <g
           id="g496"
           transform="translate(958.6484,622.0391)">
          <path
             d="m 0,0 c 0,0 -8.846,-35.452 -21.974,-85.832 -30.979,-118.886 -85.806,-320.898 -104.508,-336.3 21.145,-5.091 38.766,0.783 47.381,20.362 C -70.485,-382.19 55.215,19.971 52.865,23.495 50.516,27.02 3.804,15.107 0,0"
             style="fill:#56361e;fill-opacity:1;fill-rule:nonzero;stroke:none"
             id="path498" />
        </g>
        <g
           id="g500"
           transform="translate(499.0928,436.9404)">
          <path
             d="m 0,0 c 0,0 -3.75,24.808 0,26.077 3.749,1.269 31.848,0 31.848,0 0,0 1.282,-26.077 0,-26.077 z"
             style="fill:#22323a;fill-opacity:1;fill-rule:nonzero;stroke:none"
             id="path502" />
        </g>
        <g
           id="g504"
           transform="translate(924.2676,601.0986)">
          <path
             d="m 0,0 c 0.85,0 6.368,8.491 3.396,12.949 -2.971,4.457 -7.854,6.155 -7.854,6.155 0,0 -474.221,8.279 -477.617,4.246 -3.397,-4.033 -0.213,-14.223 2.759,-16.558 C -476.344,4.458 0,0 0,0"
             style="fill:#703e34;fill-opacity:1;fill-rule:nonzero;stroke:none"
             id="path506" />
        </g>
        <g
           id="g508"
           transform="translate(840.873,682.6499)">
          <path
             d="m 0,0 c 0,-22.063 -19.224,-39.948 -42.938,-39.948 -23.712,0 -42.936,17.885 -42.936,39.948 0,22.063 19.224,39.949 42.936,39.949 C -19.224,39.949 0,22.063 0,0"
             style="fill:#99826b;fill-opacity:1;fill-rule:nonzero;stroke:none"
             id="path510" />
        </g>
        <g
           id="g512"
           transform="translate(833.6943,682.6436)">
          <path
             d="m 0,0 c 0,-18.375 -16.01,-35.44 -35.759,-35.44 -19.748,0 -35.758,17.065 -35.758,35.44 0,18.374 16.01,35.679 35.758,35.679 C -16.01,35.679 0,18.374 0,0"
             style="fill:#4c5870;fill-opacity:1;fill-rule:nonzero;stroke:none"
             id="path514" />
        </g>
        <g
           id="g516"
           transform="translate(831.6748,682.6499)">
          <path
             d="m 0,0 c 0,-17.337 -15.105,-33.439 -33.739,-33.439 -18.634,0 -33.74,16.102 -33.74,33.439 0,17.337 15.106,33.665 33.74,33.665 C -15.105,33.665 0,17.337 0,0"
             style="fill:#3b404c;fill-opacity:1;fill-rule:nonzero;stroke:none"
             id="path518" />
        </g>
        <g
           id="g520"
           transform="translate(817.3105,706.6143)">
          <path
             d="m 0,0 c 0,0 -0.181,-36.379 -42.895,-43.799 7.245,-9.231 31.131,-20.633 47.601,2.715 C 21.176,-17.737 0,0 0,0"
             style="fill:#2e343f;fill-opacity:1;fill-rule:nonzero;stroke:none"
             id="path522" />
        </g>
        <g
           id="g524"
           transform="translate(814.0049,708.9375)">
          <path
             d="m 0,0 c 0,0 -14.912,10.681 -31.739,0 -16.826,-10.68 -13.602,-27.507 -13.602,-27.507 0,0 6.852,18.842 23.073,14.812 C -6.046,-16.726 0,0 0,0"
             style="fill:#4e5563;fill-opacity:1;fill-rule:nonzero;stroke:none"
             id="path526" />
        </g>
        <g
           id="g528"
           transform="translate(779.3437,704.9072)">
          <path
             d="M 0,0 C 0,0 8.767,7.557 27.81,5.139 22.872,10.177 5.542,10.378 0,0"
             style="fill:#737b87;fill-opacity:1;fill-rule:nonzero;stroke:none"
             id="path530" />
        </g>
        <g
           id="g532"
           transform="translate(714.8496,681.8018)">
          <path
             d="m 0,0 c 0,-21.595 -18.815,-39.1 -42.025,-39.1 -23.21,0 -42.026,17.505 -42.026,39.1 0,21.594 18.816,39.1 42.026,39.1 C -18.815,39.1 0,21.594 0,0"
             style="fill:#99826b;fill-opacity:1;fill-rule:nonzero;stroke:none"
             id="path534" />
        </g>
        <g
           id="g536"
           transform="translate(707.8232,681.7949)">
          <path
             d="m 0,0 c 0,-17.984 -15.67,-34.688 -34.999,-34.688 -19.329,0 -34.999,16.704 -34.999,34.688 0,17.984 15.67,34.921 34.999,34.921 C -15.67,34.921 0,17.984 0,0"
             style="fill:#4c5870;fill-opacity:1;fill-rule:nonzero;stroke:none"
             id="path538" />
        </g>
        <g
           id="g540"
           transform="translate(705.8467,681.8018)">
          <path
             d="m 0,0 c 0,-16.969 -14.784,-32.729 -33.022,-32.729 -18.239,0 -33.023,15.76 -33.023,32.729 0,16.968 14.784,32.949 33.023,32.949 C -14.784,32.949 0,16.968 0,0"
             style="fill:#3b404c;fill-opacity:1;fill-rule:nonzero;stroke:none"
             id="path542" />
        </g>
        <g
           id="g544"
           transform="translate(691.7871,705.2568)">
          <path
             d="m 0,0 c 0,0 -0.177,-35.606 -41.982,-42.869 7.088,-9.034 30.468,-20.194 46.588,2.657 C 20.727,-17.36 0,0 0,0"
             style="fill:#2e343f;fill-opacity:1;fill-rule:nonzero;stroke:none"
             id="path546" />
        </g>
        <g
           id="g548"
           transform="translate(688.5518,707.5308)">
          <path
             d="m 0,0 c 0,0 -14.596,10.453 -31.064,0 -16.47,-10.454 -13.314,-26.923 -13.314,-26.923 0,0 6.706,18.442 22.583,14.497 C -5.917,-16.371 0,0 0,0"
             style="fill:#4e5563;fill-opacity:1;fill-rule:nonzero;stroke:none"
             id="path550" />
        </g>
        <g
           id="g552"
           transform="translate(654.627,703.5859)">
          <path
             d="M 0,0 C 0,0 8.58,7.396 27.219,5.029 22.387,9.96 5.425,10.158 0,0"
             style="fill:#737b87;fill-opacity:1;fill-rule:nonzero;stroke:none"
             id="path554" />
        </g>
        <g
           id="g556"
           transform="translate(830.2881,546.2935)">
          <path
             d="m 0,0 c 0,-22.063 -19.224,-39.949 -42.937,-39.949 -23.713,0 -42.937,17.886 -42.937,39.949 0,22.063 19.224,39.948 42.937,39.948 C -19.224,39.948 0,22.063 0,0"
             style="fill:#99826b;fill-opacity:1;fill-rule:nonzero;stroke:none"
             id="path558" />
        </g>
        <g
           id="g560"
           transform="translate(823.1094,546.2866)">
          <path
             d="m 0,0 c 0,-18.375 -16.01,-35.44 -35.758,-35.44 -19.749,0 -35.759,17.065 -35.759,35.44 0,18.374 16.01,35.679 35.759,35.679 C -16.01,35.679 0,18.374 0,0"
             style="fill:#4c5870;fill-opacity:1;fill-rule:nonzero;stroke:none"
             id="path562" />
        </g>
        <g
           id="g564"
           transform="translate(821.0908,546.2935)">
          <path
             d="m 0,0 c 0,-17.337 -15.105,-33.439 -33.739,-33.439 -18.634,0 -33.74,16.102 -33.74,33.439 0,17.336 15.106,33.665 33.74,33.665 C -15.105,33.665 0,17.336 0,0"
             style="fill:#3b404c;fill-opacity:1;fill-rule:nonzero;stroke:none"
             id="path566" />
        </g>
        <g
           id="g568"
           transform="translate(806.7266,570.2573)">
          <path
             d="m 0,0 c 0,0 -0.182,-36.378 -42.895,-43.799 7.244,-9.23 31.13,-20.633 47.6,2.715 C 21.175,-17.737 0,0 0,0"
             style="fill:#2e343f;fill-opacity:1;fill-rule:nonzero;stroke:none"
             id="path570" />
        </g>
        <g
           id="g572"
           transform="translate(803.4199,572.5811)">
          <path
             d="m 0,0 c 0,0 -14.912,10.68 -31.738,0 -16.827,-10.681 -13.603,-27.507 -13.603,-27.507 0,0 6.852,18.841 23.073,14.811 C -6.045,-16.726 0,0 0,0"
             style="fill:#4e5563;fill-opacity:1;fill-rule:nonzero;stroke:none"
             id="path574" />
        </g>
        <g
           id="g576"
           transform="translate(768.7598,568.5503)">
          <path
             d="M 0,0 C 0,0 8.766,7.557 27.809,5.139 22.872,10.177 5.541,10.378 0,0"
             style="fill:#737b87;fill-opacity:1;fill-rule:nonzero;stroke:none"
             id="path578" />
        </g>
        <g
           id="g580"
           transform="translate(604.7178,544.4287)">
          <path
             d="m 0,0 c 0.173,0 17.989,1.896 19.196,-0.805 1.207,-2.701 1.437,-9.885 -0.173,-9.885 -1.609,0 -19.77,-0.518 -20.057,1.437 -0.287,1.954 -1.61,9.081 1.149,9.54"
             style="fill:#22323a;fill-opacity:1;fill-rule:nonzero;stroke:none"
             id="path582" />
        </g>
        <g
           id="g584"
           transform="translate(607.8379,462.8852)">
          <path
             d="m 0,0 c 0.173,0 17.988,1.896 19.195,-0.805 1.207,-2.701 1.438,-9.885 -0.172,-9.885 -1.609,0 -19.77,-0.517 -20.057,1.437 -0.288,1.954 -1.61,9.081 1.149,9.541"
             style="fill:#22323a;fill-opacity:1;fill-rule:nonzero;stroke:none"
             id="path586" />
        </g>
        <g
           id="g588"
           transform="translate(500.7734,861.8477)">
          <path
             d="m 0,0 c 0,0 -2.352,-14.321 1.068,-14.535 3.42,-0.214 30.566,-1.923 31.421,2.351 0.856,4.275 0,13.253 0,13.253 C 32.489,1.069 1.71,6.626 0,0"
             style="fill:#686462;fill-opacity:1;fill-rule:nonzero;stroke:none"
             id="path590" />
        </g>
        <g
           id="g592"
           transform="translate(119.6509,658.2646)">
          <path
             d="m 0,0 c 0,0 9.778,1.803 15.944,-7.913 6.165,-9.716 5.298,-24.793 -9.104,-30.236 -14.402,-5.443 -23.121,3.901 -26.204,7.562 -3.082,3.661 -2.119,16.618 -2.89,19.219 3.131,-6.695 2.168,-8.814 5.443,-15.365 3.276,-6.551 25.674,-6.166 27.504,2.938 C 12.524,-14.691 10.886,-2.89 0,0"
             style="fill:#313744;fill-opacity:1;fill-rule:nonzero;stroke:none"
             id="path594" />
        </g>
        <g
           id="g596"
           transform="translate(113.1338,672.1743)">
          <path
             d="m 0,0 c 0,0 -1.775,-13.321 -0.276,-15.956 1.498,-2.633 6.043,-1.001 9.428,-4.903 3.384,-3.903 4.303,-11.052 0.528,-16.508 7.622,6.872 5.32,11.88 2.448,16.508 -2.873,4.628 -7.742,4.662 -9.987,6.665 C -0.104,-12.191 0,0 0,0"
             style="fill:#60697c;fill-opacity:1;fill-rule:nonzero;stroke:none"
             id="path598" />
        </g>
        <g
           id="g600"
           transform="translate(95.2769,652.9531)">
          <path
             d="m 0,0 c 0,0 6.629,-1.455 8.152,-8.118 1.522,-6.663 2.672,-10.756 6.697,-12.007 -6.833,1.285 -6.393,4.701 -7.425,8.151 C 6.393,-8.524 4.397,-1.792 0,0"
             style="fill:#60697c;fill-opacity:1;fill-rule:nonzero;stroke:none"
             id="path602" />
        </g>
        <g
           id="g604"
           transform="translate(132.2612,340.2509)">
          <path
             d="M 0,0 C -4.493,1.498 -2.239,5.09 -0.678,5.769 0.883,6.447 6.854,6.992 6.922,4.75 6.992,2.511 4.683,-1.561 0,0 M 24.501,-27.896 C 18.87,-15.067 6.517,-17.987 5.361,-16.969 4.208,-15.951 4.208,-3.8 4.208,-3.8 c 0,0 0.95,-0.611 5.361,2.985 4.412,3.597 1.155,9.028 -7.398,9.028 -8.55,0 -8.415,-3.598 -7.94,-7.547 0.476,-3.952 4.14,-4.604 4.48,-4.806 0.619,-0.371 -2.986,-17.579 1.764,-18.778 11.606,-2.827 12.286,-16.245 6.312,-19.638 -5.974,-3.394 -14.525,-2.511 -15.745,8.416 -1.224,10.927 -12.042,11.869 -10.385,10.86 2.782,-1.697 2.307,-10.045 3.122,-18.938 0.813,-8.89 9.977,-17.103 24.704,-16.085 14.729,1.018 21.652,17.579 16.018,30.407"
             style="fill:#3f4556;fill-opacity:1;fill-rule:nonzero;stroke:none"
             id="path606" />
        </g>
        <g
           id="g608"
           transform="translate(134.0259,345.748)">
          <path
             d="M 0,0 C 0,0 -2.647,3.733 -0.679,5.226 1.29,6.719 5.365,4.819 5.16,4.479 4.955,4.14 3.665,1.833 4.14,0 1.425,-1.154 0,0 0,0"
             style="fill:#22323a;fill-opacity:1;fill-rule:nonzero;stroke:none"
             id="path610" />
        </g>
        <g
           id="g612"
           transform="translate(138.3721,321.9253)">
          <path
             d="m 0,0 c 0,0 9.778,1.803 15.944,-7.913 6.165,-9.716 5.298,-24.793 -9.104,-30.236 -14.402,-5.443 -23.121,3.901 -26.204,7.562 -3.082,3.661 -2.119,16.618 -2.89,19.219 3.131,-6.695 2.168,-8.815 5.443,-15.365 3.276,-6.551 25.674,-6.166 27.504,2.938 C 12.524,-14.691 10.886,-2.89 0,0"
             style="fill:#313744;fill-opacity:1;fill-rule:nonzero;stroke:none"
             id="path614" />
        </g>
        <g
           id="g616"
           transform="translate(131.855,335.8349)">
          <path
             d="m 0,0 c 0,0 -1.775,-13.322 -0.276,-15.956 1.498,-2.633 6.043,-1.001 9.428,-4.903 3.384,-3.903 4.303,-11.052 0.528,-16.509 7.622,6.873 5.32,11.881 2.448,16.509 -2.873,4.628 -7.742,4.662 -9.987,6.665 C -0.104,-12.191 0,0 0,0"
             style="fill:#60697c;fill-opacity:1;fill-rule:nonzero;stroke:none"
             id="path618" />
        </g>
        <g
           id="g620"
           transform="translate(113.998,316.6137)">
          <path
             d="m 0,0 c 0,0 6.629,-1.455 8.152,-8.118 1.522,-6.664 2.672,-10.757 6.697,-12.008 -6.833,1.286 -6.393,4.702 -7.425,8.152 C 6.393,-8.524 4.397,-1.793 0,0"
             style="fill:#60697c;fill-opacity:1;fill-rule:nonzero;stroke:none"
             id="path622" />
        </g>
        <g
           id="g624"
           transform="translate(154.7915,423.977)">
          <path
             d="m 0,0 c 0,-9.739 -7.367,-17.633 -16.455,-17.633 -9.087,0 -19.94,7.894 -19.94,17.633 0,9.738 7.419,16.813 16.506,16.813 C -10.801,16.813 0,9.738 0,0"
             style="fill:#7a3138;fill-opacity:1;fill-rule:nonzero;stroke:none"
             id="path626" />
        </g>
        <g
           id="g628"
           transform="translate(760.5977,435.206)">
          <path
             d="M 0,0 C -19.734,-11.095 -46.338,-0.132 -39.344,25.889 -32.349,51.91 -6.674,59.899 6.87,54.156 32.725,43.192 19.734,11.095 0,0 M 19.359,76.743 C -6.908,87.306 -42.716,73.176 -54.207,55.081 -65.697,36.984 -81.311,8.85 -58.078,-17.832 -34.848,-44.513 5.621,-36.588 30.227,-19.021 54.832,-1.453 69.944,56.401 19.359,76.743"
             style="fill:#b2322f;fill-opacity:1;fill-rule:nonzero;stroke:none"
             id="path630" />
        </g>
        <g
           id="g632"
           transform="translate(811.8906,478.1787)">
          <path
             d="m 0,0 c -6.818,1.765 -17.949,2.547 -30.416,-4.901 1.236,-6.487 -0.416,-13.717 -3.927,-20.328 5.653,1.417 13.654,2.31 21.776,-0.496 5.436,-1.878 8.801,-4.919 10.893,-8.037 C 1.895,-23.088 2.946,-11.15 0,0"
             style="fill:#f4eebd;fill-opacity:1;fill-rule:nonzero;stroke:none"
             id="path634" />
        </g>
        <g
           id="g636"
           transform="translate(751.1006,431.6186)">
          <path
             d="m 0,0 c -7.104,-1.51 -14.271,-0.59 -19.926,2.474 -4.515,-3.141 -9.276,-8.177 -10.466,-15.828 -0.847,-5.454 -0.842,-10.085 -0.49,-13.825 6.511,-2.785 13.509,-4.13 20.634,-4.314 C -9.997,-23.268 -8.334,-8.231 0,0"
             style="fill:#f4eebd;fill-opacity:1;fill-rule:nonzero;stroke:none"
             id="path638" />
        </g>
        <g
           id="g640"
           transform="translate(779.957,511.9487)">
          <path
             d="m 0,0 c -8.739,3.515 -18.533,4.284 -28.137,3.095 -3.177,-4.461 -6.853,-12.829 -3.455,-25.356 6.993,2.05 13.932,1.866 19.103,-0.326 0.785,-0.333 1.532,-0.687 2.246,-1.059 0.937,6.721 4.356,15.989 15.428,21.31 C 3.536,-1.513 1.815,-0.729 0,0"
             style="fill:#f4eebd;fill-opacity:1;fill-rule:nonzero;stroke:none"
             id="path642" />
        </g>
        <g
           id="g644"
           transform="translate(709.6777,451.6045)">
          <path
             d="m 0,0 c 4.634,-0.899 8.131,-1.819 10.785,-2.691 -0.606,3.582 -0.428,7.648 0.791,12.182 0.67,2.488 1.512,4.809 2.495,6.971 -1.802,4.016 -5.804,8.447 -14.686,7.853 -5.499,-0.368 -9.413,-1.4 -12.184,-2.59 C -16.571,13.56 -19.344,4.511 -19.15,-4.896 -15.665,-1.425 -9.672,1.876 0,0"
             style="fill:#f4eebd;fill-opacity:1;fill-rule:nonzero;stroke:none"
             id="path646" />
        </g>
        <g
           id="g648">
          <g
             id="g650" />
          <g
             id="g662">
            <g
               clip-path="url(#clipPath654)"
               opacity="0.210007"
               id="g660">
              <g
                 transform="translate(707.1338,486.8242)"
                 id="g658">
                <path
                   d="M 0,0 C 0,0 10.811,25.146 51.022,26.858 87.681,28.569 100.188,0 100.188,0 100.188,0 75.319,21.747 42.653,18.168 9.988,14.59 0,0 0,0"
                   style="fill:#f4eebd;fill-opacity:1;fill-rule:nonzero;stroke:none"
                   id="path656" />
              </g>
            </g>
          </g>
        </g>
        <g
           id="g664">
          <g
             id="g666" />
          <g
             id="g678">
            <g
               clip-path="url(#clipPath670)"
               opacity="0.630005"
               id="g676">
              <g
                 transform="translate(691.2148,449.6176)"
                 id="g674">
                <path
                   d="m 0,0 c 0,0 10.11,-32.399 58.312,-30.344 48.201,2.056 57.795,35.408 57.795,35.408 0,0 -0.46,-49.348 -57.795,-50.602 C 0.976,-46.791 2.908,-11.003 0,0"
                   style="fill:#9a322f;fill-opacity:1;fill-rule:nonzero;stroke:none"
                   id="path672" />
              </g>
            </g>
          </g>
        </g>
        <g
           id="g680"
           transform="translate(703.2012,411.8442)">
          <path
             d="m 0,0 c -1.68,0 -3.191,0.418 -4.531,1.254 -6.65,4.146 -6.22,17.093 -6.199,17.642 0.024,0.582 0.593,1.098 1.089,1.008 0.578,-0.025 1.029,-0.508 1.008,-1.09 -0.004,-0.123 -0.405,-12.283 5.216,-15.782 2.479,-1.541 5.921,-1.164 10.21,1.163 6.695,3.614 10.407,8.457 13.394,12.349 5.04,6.564 8.678,11.333 21.076,4.106 0.5,-0.295 1.655,-1.054 1.364,-1.554 -0.291,-0.5 -3.629,0.043 -4.134,0.313 -10.8,6.302 -11.771,2.224 -16.642,-4.143 C 18.745,11.218 14.881,6.17 7.793,2.344 4.9,0.787 2.295,0 0,0"
             style="fill:#22323a;fill-opacity:1;fill-rule:nonzero;stroke:none"
             id="path682" />
        </g>
        <g
           id="g684"
           transform="translate(770.1416,379.0258)">
          <path
             d="m 0,0 c -1.304,0 -2.517,0.41 -3.618,1.221 -6.552,4.842 -6.468,21.02 -6.472,21.799 -0.004,0.582 0.463,1.049 1.041,1.057 0.59,0.073 1.053,-0.459 1.057,-1.041 C -7.951,18.021 -7.113,6.416 -2.373,2.909 -1.254,2.081 -0.005,1.868 1.454,2.327 5.813,3.622 4.265,20.543 2.9,35.465 1.09,55.271 -0.623,73.979 7.125,76.125 7.69,76.281 8.985,78.167 9.142,77.61 9.297,77.053 8.203,74.609 7.642,74.454 1.578,72.766 3.49,52.034 4.99,35.653 6.637,17.65 8.059,2.106 2.053,0.311 1.348,0.106 0.659,0 0,0"
             style="fill:#22323a;fill-opacity:1;fill-rule:nonzero;stroke:none"
             id="path686" />
        </g>
        <g
           id="g688"
           transform="translate(119.7314,421.7417)">
          <path
             d="m 0,0 c -1.552,10.412 7.955,17.979 17.332,17.461 9.377,-0.517 14.421,-8.718 14.421,-8.718 0,0 -8.045,5.678 -15.146,0.634 C 9.506,4.333 25.48,-2.264 12.87,-10.606 3.17,-8.291 0,0 0,0"
             style="fill:#a73138;fill-opacity:1;fill-rule:nonzero;stroke:none"
             id="path690" />
        </g>
        <g
           id="g692"
           transform="translate(152.1016,429.27)">
          <path
             d="m 0,0 c 0,0 3.463,-4.896 -0.836,-12.022 -4.299,-7.126 -8.877,-8.639 -13.694,-8.798 0,0 7.086,2.149 7.165,9.633 C -7.285,-3.702 -5.414,3.225 0,0"
             style="fill:#682730;fill-opacity:1;fill-rule:nonzero;stroke:none"
             id="path694" />
        </g>
        <g
           id="g696"
           transform="translate(120.2466,425.8935)">
          <path
             d="m 0,0 c 0,0 -1.187,10.264 12.229,13.409 7.922,1.273 15.924,-4.221 15.924,-4.221 0,0 -11.744,4.062 -18.87,-0.039 C 2.157,5.048 0,0 0,0"
             style="fill:#bc6876;fill-opacity:1;fill-rule:nonzero;stroke:none"
             id="path698" />
        </g>
        <g
           id="g700"
           transform="translate(680.8428,543.3374)">
          <path
             d="m 0,0 c -0.928,5.769 -3.941,9.014 -8.227,10.929 -5.71,-16.114 -18.509,-46.308 -38.511,-62.304 4.447,-11.55 29.056,-7.26 42.688,-3.185 C 10.03,-50.351 2.198,-13.66 0,0"
             style="fill:#323742;fill-opacity:1;fill-rule:nonzero;stroke:none"
             id="path702" />
        </g>
        <g
           id="g704"
           transform="translate(661.751,555.5532)">
          <path
             d="m 0,0 c 0,0 -19.009,0.447 -24.6,-3.802 -5.59,-4.248 -3.485,-32.351 -3.046,-37.57 0.81,21.916 5.209,35.26 11.47,37.72 C -9.915,-1.192 0,0 0,0"
             style="fill:#626a7a;fill-opacity:1;fill-rule:nonzero;stroke:none"
             id="path706" />
        </g>
        <g
           id="g708"
           transform="translate(827.9316,428.1303)">
          <path
             d="m 0,0 c -26.885,1.067 -36.376,-11.862 -34.794,-27.564 1.581,-15.702 16.38,-31.63 33.551,-28.242 17.171,3.389 21.916,19.318 21.916,32.874 C 20.673,-9.376 14.233,-0.565 0,0"
             style="fill:#b2322f;fill-opacity:1;fill-rule:nonzero;stroke:none"
             id="path710" />
        </g>
        <g
           id="g712"
           transform="translate(816.8506,426.2241)">
          <path
             d="m 0,0 c 0.096,0.864 -0.96,6.624 5.279,7.583 6.239,0.96 7.87,-6.719 7.775,-7.007 C 12.958,0.288 0,0 0,0"
             style="fill:#22323a;fill-opacity:1;fill-rule:nonzero;stroke:none"
             id="path714" />
        </g>
        <g
           id="g716"
           transform="translate(822.8018,431.7915)">
          <path
             d="m 0,0 c 0,0 -2.4,74.485 -0.576,78.037 1.823,3.551 8.062,2.399 8.062,2.399 0,0 -5.567,-4.223 -5.279,-18.429 C 2.495,47.801 3.113,1.408 3.113,1.408 Z"
             style="fill:#22323a;fill-opacity:1;fill-rule:nonzero;stroke:none"
             id="path718" />
        </g>
        <g
           id="g720"
           transform="translate(794.9453,393.1919)">
          <path
             d="m 0,0 c 2.446,-6.797 7.108,-12.982 13.15,-16.923 8.951,1.415 25.532,5.492 39.024,16.819 1.004,3.998 1.485,8.145 1.485,12.111 0,2.007 -0.188,3.871 -0.475,5.66 C 45.471,10.95 26.102,-2.821 0,0"
             style="fill:#f4eebd;fill-opacity:1;fill-rule:nonzero;stroke:none"
             id="path722" />
        </g>
        <g
           id="g724"
           transform="translate(625.8389,788.728)">
          <path
             d="M 0,0 C 0,0 12.266,16.424 33.68,20.167 55.094,23.909 62.994,23.493 64.033,32.849 65.072,42.204 49.896,45.014 39.501,50.574 29.105,56.133 19.75,57.173 10.603,73.181 1.455,89.189 -1.04,72.973 -1.248,68.815 -1.455,64.657 -9.563,4.99 -5.613,0 -1.663,-4.989 0,0 0,0"
             style="fill:#ad342d;fill-opacity:1;fill-rule:nonzero;stroke:none"
             id="path726" />
        </g>
        <g
           id="g728"
           transform="translate(646.4834,849.502)">
          <path
             d="m 0,0 c -0.544,-10.41 -1.412,-31.626 -0.326,-44.891 3.939,1.866 8.402,3.417 13.361,4.284 1.066,0.186 2.071,0.355 3.071,0.522 0.002,6.303 0.267,19.998 2.293,30.124 C 11.934,-6.573 5.868,-4.824 0,0"
             style="fill:#e5bf9e;fill-opacity:1;fill-rule:nonzero;stroke:none"
             id="path730" />
        </g>
        <g
           id="g732">
          <g
             id="g734" />
          <g
             id="g746">
            <g
               clip-path="url(#clipPath738)"
               opacity="0.369995"
               id="g744">
              <g
                 transform="translate(631.1963,862.8784)"
                 id="g742">
                <path
                   d="M 0,0 C 0,0 4.628,-15.196 22.172,-20.929 39.716,-26.662 53.008,-31.146 55.81,-36.47 42.642,-27.431 8.22,-23.001 3.73,-28.596 -0.76,-34.19 -3.729,-42.41 -6.976,-55.257 -7.805,-61.404 -8.634,-43.031 -7.46,-32.463 -6.285,-21.896 -3.592,6.285 0,0"
                   style="fill:#e5bf9e;fill-opacity:1;fill-rule:nonzero;stroke:none"
                   id="path740" />
              </g>
            </g>
          </g>
        </g>
        <g
           id="g748"
           transform="translate(687.0059,825.3076)">
          <path
             d="m 0,0 c 0,0 -5.974,-11.238 -22.123,-2.683 -1.067,-8.338 -0.923,-10.876 -0.923,-10.876 0,0 29.053,0.218 23.046,13.559"
             style="fill:#912724;fill-opacity:1;fill-rule:nonzero;stroke:none"
             id="path750" />
        </g>
        <g
           id="g752"
           transform="translate(643.9492,816.2949)">
          <path
             d="m 0,0 c 0,0 0.725,-8.951 1.087,-9.902 -9.353,-4.214 -19.286,-14.002 -20.809,-17.265 -1.522,-3.263 -3.915,6.862 -3.552,11.769 C -20.229,-19.047 -0.798,-10.608 0,0"
             style="fill:#912724;fill-opacity:1;fill-rule:nonzero;stroke:none"
             id="path754" />
        </g>
        <g
           id="g756"
           transform="translate(501.2129,854.5903)">
          <path
             d="M 0,0 C 0,0 -0.4,6.706 1.751,7.906 3.902,9.107 27.071,9.208 31.175,7.456 10.658,7.556 5.435,4.889 3.668,4.396 1.901,3.903 0,0 0,0"
             style="fill:#938f8d;fill-opacity:1;fill-rule:nonzero;stroke:none"
             id="path758" />
        </g>
        <g
           id="g760"
           transform="translate(970.6826,618.9458)">
          <path
             d="M 0,0 C -4.097,-0.86 33.876,29.498 33.431,18.354 16.492,-47.169 -86.026,-395.289 -105.193,-411.335 -67.751,-306.587 18.722,3.933 0,0"
             style="fill:#72482a;fill-opacity:1;fill-rule:nonzero;stroke:none"
             id="path762" />
        </g>
        <g
           id="g764"
           transform="translate(528.2373,461.706)">
          <path
             d="m 0,0 c 0,0 -24.195,0.957 -27.924,0 -3.023,-10.028 0.303,-21.315 0.303,-21.315 0,0 0.654,16.427 4.988,18.04 C -18.3,-1.663 0,0 0,0"
             style="fill:#364d56;fill-opacity:1;fill-rule:nonzero;stroke:none"
             id="path766" />
        </g>
        <g
           id="g768"
           transform="translate(934.8037,835.0874)">
          <path
             d="m 0,0 c 0,0 -218.85,-8.377 -375.682,-114.186 64.835,33.5 265.913,107.87 381.128,97.627 C 16.836,-7.526 0,0 0,0"
             style="fill:#87583e;fill-opacity:1;fill-rule:nonzero;stroke:none"
             id="path770" />
        </g>
        <g
           id="g772"
           transform="translate(917.9092,616.6792)">
          <path
             d="M 0,0 -469.833,5.547 C -399.683,-3.54 33.146,-18.665 0,0"
             style="fill:#8c5046;fill-opacity:1;fill-rule:nonzero;stroke:none"
             id="path774" />
        </g>
        <g
           id="g776"
           transform="translate(1022.1104,244.9863)">
          <path
             d="m 0,0 c -49.899,-32.135 -104.82,-56.456 -162.152,-71.807 -86.242,-23.091 -176.94,-25.737 -265.861,-17.752 -88.921,7.987 -176.535,26.392 -263.871,44.914 3.113,-1.038 12.243,3.116 15.559,3.959 6.339,1.614 12.678,3.227 19.017,4.84 11.525,2.933 23.051,5.866 34.577,8.799 16.64,4.235 32.793,8.604 49.955,9.764 45.655,3.087 91.058,4.999 136.837,4.239 93.52,-1.553 186.965,-9.752 280.541,-6.498 C -103.154,-17.725 -50.897,-12.222 0,0"
             style="fill:#82d4d8;fill-opacity:1;fill-rule:nonzero;stroke:none"
             id="path778" />
        </g>
        <g
           id="g780"
           transform="translate(1029.4873,175.1001)">
          <path
             d="m 0,0 c -16.843,-7.948 -33.75,-15.92 -51.513,-21.518 -25.623,-8.074 -52.528,-11.054 -79.231,-13.993 -45.479,-5.006 -90.956,-10.011 -136.434,-15.016 53.864,-5.679 108.348,-11.352 162.019,-4.078 25.033,3.392 49.766,9.813 72.953,19.909 21.025,9.154 48.488,22.99 62.549,41.884 5.883,7.905 0.526,7.377 -6.41,4.105 C 15.955,7.529 7.978,3.764 0,0"
             style="fill:#71cccc;fill-opacity:1;fill-rule:nonzero;stroke:none"
             id="path782" />
        </g>
        <g
           id="g784"
           transform="translate(298.0576,145.417)">
          <path
             d="m 0,0 c 34.416,-14.091 72.542,-15.009 109.653,-17.41 37.112,-2.401 75.645,-6.988 106.976,-27.022 -41.151,8.951 -84.11,1.747 -125.963,6.426 -23.094,2.581 -45.743,8.902 -66.909,18.475 C 6.97,-11.938 -20.781,0.234 -30.758,16.516 -20.544,10.833 -10.937,4.478 0,0"
             style="fill:#71cccc;fill-opacity:1;fill-rule:nonzero;stroke:none"
             id="path786" />
        </g>
        <g
           id="g788"
           transform="translate(171.106,167.0825)">
          <path
             d="M 0,0 C 52.562,17.273 110.267,18.541 163.536,3.59 120.179,13.989 77.707,35.822 33.48,30.163 5.973,26.643 -18.675,12.717 -41.24,-2.651 -49.508,-8.282 -59.437,-20.247 -42.059,-14.834 -27.859,-10.412 -14.125,-4.642 0,0"
             style="fill:#71cccc;fill-opacity:1;fill-rule:nonzero;stroke:none"
             id="path790" />
        </g>
      </g>
    </g>
  </g>
  <metadata
     id="metadata1498">
    <rdf:RDF>
      <cc:Work
         rdf:about="">
        <dc:title>MediaWhaler Logo</dc:title>
        <cc:license
           rdf:resource="https://all-free-download.com" />
      </cc:Work>
    </rdf:RDF>
  </metadata>
</svg>
